<svg width="144" height="181" viewBox="0 0 144 181" fill="none" xmlns="http://www.w3.org/2000/svg">
<path d="M142.448 -42.5L71.1143 127.64C66.7029 138.11 62.0855 147.365 57.2627 155.421C52.4608 163.428 46.5702 169.61 39.6025 173.97C32.6564 178.311 23.5625 180.5 12.2627 180.5C6.65291 180.5 0.444505 179.409 -6.35254 177.221C-12.9926 175.085 -18.8709 172.601 -23.998 169.773L-8.94922 137.009C-5.98301 138.555 -3.19646 139.853 -0.587891 140.898L0.576172 141.353C3.65379 142.516 6.40125 143.114 8.79492 143.114C13.3111 143.114 17.307 141.874 20.7637 139.401L20.7646 139.4C24.2088 136.924 26.9978 133.337 29.1309 128.66L29.1357 128.648L35.5791 113.512V113.511L35.9033 112.744L35.9424 112.65V112.634L55.1357 66.1045L55.1416 66.1055L97.7939 -42.5H142.448ZM9.41211 -42.5L53.9512 65.4707L23.9229 86.2617L-35.2207 -42.5H9.41211Z" stroke="#1A1C1D"/>
</svg>
